<svg width="214" height="28" viewBox="0 0 214 28" fill="none" xmlns="http://www.w3.org/2000/svg">
<g id="Logo">
<g id="Vector">
<path id="Vector_2" d="M34.8889 26.5984C34.1089 26.5984 33.4767 25.9914 33.4767 25.2428V14.0705C33.4767 12.123 33.0864 10.5313 32.3062 9.29536C31.5258 8.02198 30.2577 7.38529 28.502 7.38529C26.7462 7.38529 25.4781 7.92835 24.6978 9.01447C23.9564 10.0631 23.5858 11.5425 23.5858 13.4526V25.2428C23.5858 25.9914 22.9535 26.5984 22.1736 26.5984H18.1505C17.3706 26.5984 16.7383 25.9914 16.7383 25.2428V13.4526C16.7383 11.5425 16.3676 10.0631 15.6264 9.01447C14.885 7.92835 13.6365 7.38529 11.8807 7.38529C10.1249 7.38529 8.83737 8.02198 8.01801 9.29536C7.23767 10.5313 6.84749 12.123 6.84749 14.0705V25.2428C6.84749 25.9914 6.21524 26.5984 5.43531 26.5984H1.41218C0.632258 26.5984 0 25.9914 0 25.2428V14.9132C0 14.0144 0.0195085 13.0968 0.0585257 12.1605C0.0975427 11.2242 0.214593 10.3815 0.409679 9.63243C0.994935 6.97331 2.28249 4.93216 4.27237 3.50896C6.26223 2.08578 8.79834 1.37418 11.8807 1.37418C13.7925 1.37418 15.4702 1.76743 16.9139 2.55393C17.529 2.87305 18.0803 3.24658 18.5679 3.67447C19.4057 4.40982 20.9769 4.40982 21.8148 3.67447C22.3024 3.24658 22.8538 2.87305 23.4687 2.55393C24.9124 1.76743 26.5901 1.37418 28.502 1.37418C31.5843 1.37418 34.1205 2.08578 36.1103 3.50896C38.1392 4.93216 39.4268 6.97331 39.973 9.63243C40.1291 10.3815 40.2266 11.2242 40.2656 12.1605C40.3046 13.0968 40.3242 14.0144 40.3242 14.9132V25.2428C40.3242 25.9914 39.6919 26.5984 38.912 26.5984H34.8889Z" fill="black"/>
<path id="Vector_3" fill-rule="evenodd" clip-rule="evenodd" d="M53.848 17.1604C52.879 17.1604 52.2036 18.0928 52.8016 18.8247C53.2421 19.3638 53.7903 19.8203 54.4461 20.194C55.6947 20.9056 57.1968 21.2614 58.9526 21.2614C59.967 21.2614 61.0789 21.1116 62.2885 20.812C63.1906 20.5684 64.0926 20.1295 64.9947 19.4949C65.6021 19.0677 66.4524 19.0786 66.9849 19.5897L69.4835 21.9883C70.035 22.5176 70.0395 23.3824 69.4356 23.8561C68.2 24.8258 66.8125 25.5713 65.2734 26.0927C63.2835 26.767 61.118 27.104 58.777 27.104C56.7481 27.104 54.8557 26.8044 53.1 26.2051C51.3442 25.6059 49.8226 24.7632 48.535 23.6771C47.2475 22.5536 46.233 21.2052 45.4917 19.6323C44.7894 18.0592 44.4382 16.299 44.4382 14.3515C44.4382 12.4039 44.7894 10.6437 45.4917 9.07065C46.1939 7.4602 47.1694 6.09318 48.4179 4.96961C49.7056 3.80859 51.2272 2.92846 52.983 2.32921C54.7387 1.69252 56.6505 1.37418 58.7184 1.37418C60.2401 1.37418 61.7228 1.58017 63.1664 1.99214C64.6101 2.36667 65.8976 2.92846 67.0291 3.6775C68.1606 4.3891 69.0775 5.28796 69.7798 6.37407C70.4821 7.42274 70.8333 8.63994 70.8333 10.0257C70.8333 11.4115 70.5601 12.5724 70.0139 13.5088C69.5067 14.4076 68.7654 15.1379 67.7899 15.6997C66.8536 16.224 65.7221 16.5986 64.3955 16.8233C63.1078 17.048 61.6838 17.1604 60.1231 17.1604H53.848ZM58.6056 12.6003C61.783 12.6003 64.9604 11.948 64.9604 9.88921C64.9604 7.83041 62.1153 6.83921 58.6056 6.83921C55.0959 6.83921 51.8977 8.84708 51.8977 10.9059C51.8977 12.6883 54.2948 12.6545 57.2159 12.6132C57.6689 12.6069 58.1344 12.6003 58.6056 12.6003Z" fill="black"/>
<path id="Vector_4" d="M83.6489 9.40772C84.8976 8.09688 86.6338 7.44147 88.8578 7.44147C91.1208 7.44147 92.8765 8.09688 94.125 9.40772C95.3735 10.7186 95.9979 12.5163 95.9979 14.8009V25.2428C95.9979 25.9914 96.6301 26.5984 97.4101 26.5984H101.433C102.213 26.5984 102.845 25.9914 102.845 25.2428V14.5199C102.845 12.6099 102.533 10.8496 101.909 9.23919C101.285 7.62873 100.368 6.24299 99.1582 5.08197C97.9878 3.92094 96.5246 3.02208 94.7688 2.3854C93.0521 1.71125 91.1013 1.37418 88.9162 1.37418C86.6922 1.37418 84.7219 1.71125 83.0052 2.3854C81.2885 3.02208 79.8253 3.92094 78.6158 5.08197C77.4062 6.24299 76.4893 7.62873 75.865 9.23919C75.2408 10.8496 74.9286 12.6099 74.9286 14.5199V25.2428C74.9286 25.9914 75.5609 26.5984 76.3409 26.5984H80.3639C81.1439 26.5984 81.7762 25.9914 81.7762 25.2428V14.8009C81.7762 12.5163 82.4004 10.7186 83.6489 9.40772Z" fill="black"/>
<path id="Vector_5" d="M107.55 19.8572C107.55 18.2842 107.881 17.0108 108.545 16.037C109.208 15.0632 110.066 14.2768 111.12 13.6776C112.174 13.0783 113.344 12.6289 114.632 12.3292C115.919 11.9922 117.206 11.6925 118.494 11.4304L120.367 11.0371C122.006 10.7001 123.352 10.3817 124.405 10.0821C125.458 9.78249 125.986 9.33305 125.986 8.73382C125.986 8.47963 125.887 8.29283 125.691 8.17343C125.618 8.12915 125.541 8.09077 125.464 8.05293C125.246 7.94507 124.97 7.89114 124.639 7.89114H110.601C109.821 7.89114 109.188 7.28424 109.188 6.53559V3.23558C109.188 2.48693 109.821 1.88003 110.601 1.88003H124.99C127.487 1.88003 129.419 2.42309 130.785 3.50921C132.15 4.55787 132.833 6.0747 132.833 8.05968C132.833 9.55777 132.521 10.8124 131.897 11.8236C131.311 12.7974 130.531 13.6026 129.556 14.2393C128.58 14.876 127.448 15.4004 126.162 15.8123C124.913 16.1869 123.625 16.5052 122.298 16.7673L120.426 17.1606C118.709 17.5351 117.265 17.8722 116.095 18.1718C114.963 18.4715 114.397 18.9771 114.397 19.6886C114.397 20.2504 114.827 20.5313 115.685 20.5313H131.303C132.084 20.5313 132.716 21.1383 132.716 21.8869V25.243C132.716 25.9917 132.084 26.5986 131.303 26.5986H116.095C113.364 26.5986 111.257 26.0369 109.774 24.9132C108.291 23.7523 107.55 22.0669 107.55 19.8572Z" fill="black"/>
<path id="Vector_6" d="M137.922 16.037C137.258 17.0108 136.927 18.2842 136.927 19.8572C136.927 22.0669 137.668 23.7523 139.151 24.9132C140.634 26.0369 142.741 26.5986 145.472 26.5986H160.68C161.461 26.5986 162.093 25.9917 162.093 25.243V21.8869C162.093 21.1383 161.461 20.5313 160.68 20.5313H145.062C144.204 20.5313 143.774 20.2504 143.774 19.6886C143.774 18.9771 144.34 18.4715 145.472 18.1718C146.642 17.8722 148.086 17.5351 149.802 17.1606L151.675 16.7673C153.002 16.5052 154.289 16.1869 155.539 15.8123C156.825 15.4004 157.957 14.876 158.933 14.2393C159.908 13.6026 160.689 12.7974 161.274 11.8236C161.898 10.8124 162.21 9.55777 162.21 8.05968C162.21 6.0747 161.527 4.55787 160.162 3.50921C158.796 2.42309 156.865 1.88003 154.368 1.88003H139.978C139.198 1.88003 138.566 2.48693 138.566 3.23558V6.53559C138.566 7.28424 139.198 7.89114 139.978 7.89114H154.016C154.347 7.89114 154.623 7.94507 154.841 8.05293C154.918 8.09077 154.995 8.12915 155.068 8.17343C155.264 8.29283 155.362 8.47963 155.362 8.73382C155.362 9.33305 154.835 9.78249 153.782 10.0821C152.729 10.3817 151.383 10.7001 149.744 11.0371L147.871 11.4304C146.583 11.6925 145.296 11.9922 144.009 12.3292C142.721 12.6289 141.55 13.0783 140.497 13.6776C139.443 14.2768 138.585 15.0632 137.922 16.037Z" fill="black"/>
<path id="Vector_7" fill-rule="evenodd" clip-rule="evenodd" d="M165.079 1.24705C165.714 0.637232 166.745 0.637232 167.381 1.24705L170.99 4.71262C173.478 2.29088 176.936 0.789706 180.759 0.789706C184.603 0.789706 188.078 2.30801 190.569 4.75404L194.223 1.24705C194.858 0.637232 195.888 0.637232 196.523 1.24705C197.159 1.85687 197.159 2.84559 196.523 3.45542L192.567 7.25285C193.78 9.21645 194.475 11.5085 194.475 13.9566C194.475 21.2285 188.334 27.1234 180.759 27.1234C173.183 27.1234 167.042 21.2285 167.042 13.9566C167.042 11.4871 167.75 9.17637 168.982 7.2014L165.079 3.45542C164.444 2.84559 164.444 1.85687 165.079 1.24705ZM174.322 12.3264C174.178 12.8468 174.103 13.3932 174.103 13.9566C174.103 17.4852 177.083 20.3456 180.759 20.3456C184.435 20.3456 187.415 17.4852 187.415 13.9566C187.415 13.4167 187.345 12.8925 187.214 12.3918L182.012 17.385C181.679 17.7046 181.238 17.8566 180.802 17.8414C180.366 17.8566 179.924 17.7046 179.591 17.385L174.322 12.3264ZM185.576 9.54731C184.363 8.3275 182.653 7.56747 180.759 7.56747C178.885 7.56747 177.193 8.31015 175.984 9.50548L180.802 14.13L185.576 9.54731Z" fill="black"/>
</g>
<path id="&#194;&#174;" d="M204.603 2.19634C205 1.52698 205.544 0.983125 206.234 0.585691C206.903 0.209175 207.657 0 208.493 0C209.33 0 210.083 0.209175 210.773 0.585691C211.464 0.983125 212.007 1.50606 212.405 2.17542C212.802 2.84479 213.011 3.59782 213.011 4.4136C213.011 5.22939 212.802 5.9615 212.405 6.63087C212.007 7.30023 211.464 7.84408 210.773 8.2206C210.083 8.59712 209.33 8.78537 208.493 8.78537C207.657 8.78537 206.903 8.59712 206.234 8.2206C205.544 7.84408 205 7.32114 204.603 6.65178C204.205 5.98242 204.017 5.25031 204.017 4.43452C204.017 3.61874 204.205 2.8657 204.603 2.19634ZM211.484 2.63561C211.192 2.11267 210.773 1.69432 210.25 1.40148C209.727 1.10863 209.142 0.941289 208.493 0.941289C207.845 0.941289 207.259 1.10863 206.736 1.40148C206.213 1.69432 205.795 2.11267 205.502 2.65653C205.209 3.20039 205.063 3.78608 205.063 4.43452C205.063 5.08297 205.209 5.66866 205.502 6.1916C205.795 6.71453 206.213 7.13289 206.736 7.42573C207.259 7.71858 207.845 7.865 208.493 7.865C209.142 7.865 209.727 7.71858 210.25 7.42573C210.773 7.13289 211.192 6.71454 211.484 6.17068C211.777 5.64774 211.945 5.06205 211.945 4.4136C211.945 3.76516 211.777 3.17947 211.484 2.63561ZM208.681 2.029C209.246 2.029 209.706 2.17542 210.041 2.44735C210.376 2.7402 210.543 3.11671 210.543 3.5769C210.543 3.91158 210.439 4.18351 210.271 4.43452C210.104 4.68553 209.853 4.85287 209.539 4.95746L210.585 6.79821H209.435L208.514 5.16664H207.845V6.79821H206.799V2.029H208.681ZM207.845 4.30902H208.619C208.87 4.30902 209.058 4.24626 209.225 4.12076C209.372 3.99525 209.455 3.80699 209.455 3.5769C209.455 3.36773 209.372 3.20039 209.225 3.07488C209.079 2.94937 208.87 2.88662 208.619 2.88662H207.845V4.30902Z" fill="black"/>
</g>
</svg>
